<svg xmlns="http://www.w3.org/2000/svg" width="128" height="128" viewBox="0 0 128 128" role="img" aria-labelledby="title">
  <title id="title">Fast PDF Viewer – AI Translation</title>
  <defs>
    <linearGradient id="background" x1="18" y1="12" x2="111" y2="119" gradientUnits="userSpaceOnUse">
      <stop stop-color="#2384D2"/>
      <stop offset="1" stop-color="#16549B"/>
    </linearGradient>
    <linearGradient id="spark" x1="87" y1="82" x2="111" y2="108" gradientUnits="userSpaceOnUse">
      <stop stop-color="#E9D5FF"/>
      <stop offset="1" stop-color="#A78BFA"/>
    </linearGradient>
    <filter id="shadow" x="18" y="12" width="94" height="110" filterUnits="userSpaceOnUse">
      <feDropShadow dx="0" dy="5" stdDeviation="4" flood-color="#0A3769" flood-opacity=".35"/>
    </filter>
  </defs>

  <rect width="128" height="128" rx="27" fill="url(#background)"/>

  <g filter="url(#shadow)">
    <path d="M30 17h49l20 20v73H30z" fill="#FFFFFF"/>
    <path d="M79 17v20h20z" fill="#CDE9FF"/>
    <path d="M79 17v20h20" fill="none" stroke="#77B7E7" stroke-linejoin="round" stroke-width="3"/>
  </g>

  <rect x="38" y="53" width="53" height="30" rx="7" fill="#E5484D"/>
  <text x="64.5" y="74.5" fill="#FFFFFF" font-family="Arial, Helvetica, sans-serif" font-size="19" font-weight="700" letter-spacing=".5" text-anchor="middle">PDF</text>

  <path d="M99 79c1.2 8.7 5.9 13.4 14.6 14.6-8.7 1.2-13.4 5.9-14.6 14.6-1.2-8.7-5.9-13.4-14.6-14.6 8.7-1.2 13.4-5.9 14.6-14.6z" fill="none" stroke="#17466F" stroke-width="6" stroke-linejoin="round"/>
  <path d="M99 79c1.2 8.7 5.9 13.4 14.6 14.6-8.7 1.2-13.4 5.9-14.6 14.6-1.2-8.7-5.9-13.4-14.6-14.6 8.7-1.2 13.4-5.9 14.6-14.6z" fill="url(#spark)" stroke="#FFFFFF" stroke-width="2" stroke-linejoin="round"/>
  <path d="M108.5 66c.5 3.8 2.7 6 6.5 6.5-3.8.5-6 2.7-6.5 6.5-.5-3.8-2.7-6-6.5-6.5 3.8-.5 6-2.7 6.5-6.5z" fill="#E9D5FF"/>
</svg>
